<?xml version="1.0" encoding="utf-8"?>
<!-- Generator: Adobe Illustrator 23.1.0, SVG Export Plug-In . SVG Version: 6.00 Build 0)  -->
<svg version="1.1" id="Ebene_1" xmlns:serif="http://www.serif.com/"
	 xmlns="http://www.w3.org/2000/svg" xmlns:xlink="http://www.w3.org/1999/xlink" x="0px" y="0px" viewBox="0 0 768 768"
	 style="enable-background:new 0 0 768 768;" xml:space="preserve">
<path class="st0" d="M384,0c211.93,0,384,172.07,384,384S595.93,768,384,768S0,595.93,0,384S172.07,0,384,0z M316.36,588.24
	c169.92,0,262.84-140.8,262.84-262.83c0-4.02,0-8.05-0.19-11.88c18.01-13.03,33.72-29.31,46.17-47.89
	c-16.47,7.28-34.29,12.26-53.07,14.56c19.16-11.49,33.72-29.5,40.61-51.15c-17.82,10.54-37.55,18.2-58.62,22.41
	c-16.86-18.01-40.8-29.12-67.43-29.12c-50.96,0-92.34,41.38-92.34,92.34c0,7.28,0.77,14.37,2.49,21.07
	C320,331.92,252,295.13,206.4,239.19c-7.86,13.6-12.45,29.5-12.45,46.36c0,31.99,16.28,60.35,41.19,76.82
	c-15.14-0.38-29.31-4.6-41.76-11.49v1.15c0,44.83,31.8,81.99,74.14,90.61c-7.66,2.11-15.9,3.26-24.33,3.26
	c-5.94,0-11.69-0.57-17.43-1.72c11.68,36.78,45.78,63.41,86.21,64.18c-31.61,24.71-71.46,39.47-114.75,39.47
	c-7.47,0-14.75-0.38-22.03-1.34C215.6,572.91,264.26,588.24,316.36,588.24L316.36,588.24z"/>
</svg>
