<?xml version="1.0" encoding="utf-8"?>
<!-- Generator: Adobe Illustrator 23.1.0, SVG Export Plug-In . SVG Version: 6.00 Build 0)  -->
<svg version="1.1" id="Ebene_1" xmlns:serif="http://www.serif.com/"
	 xmlns="http://www.w3.org/2000/svg" xmlns:xlink="http://www.w3.org/1999/xlink" x="0px" y="0px" viewBox="0 0 768 768"
	 style="enable-background:new 0 0 768 768;" xml:space="preserve">
<path class="st0" d="M382.53,768l0.34,0h-0.12L382.53,768L382.53,768z M385.24,768h-0.12l0.34,0L385.24,768z M381.36,767.99l0.37,0
	h-0.21L381.36,767.99z M386.48,767.99h-0.21l0.37,0L386.48,767.99z M380.23,767.98l0.25,0l-0.2,0H380.23L380.23,767.98z
	 M387.72,767.98l-0.2,0l0.25,0H387.72L387.72,767.98z M388.96,767.97l-0.09,0l0.33,0L388.96,767.97L388.96,767.97z M378.79,767.97
	l0.33,0l-0.09,0L378.79,767.97L378.79,767.97z M390.2,767.95l-0.2,0l0.41-0.01L390.2,767.95L390.2,767.95z M377.59,767.95l0.41,0.01
	l-0.2,0L377.59,767.95L377.59,767.95z M391.43,767.93l-0.27,0l0.38-0.01L391.43,767.93z M376.46,767.93l0.38,0.01l-0.27,0
	L376.46,767.93L376.46,767.93z M375.05,767.9l0.34,0.01l-0.06,0L375.05,767.9L375.05,767.9z M392.67,767.9l-0.06,0l0.34-0.01
	L392.67,767.9z M373.82,767.87l0.46,0.01l-0.19,0L373.82,767.87z M393.9,767.87l-0.19,0l0.46-0.01L393.9,767.87z M395.14,767.84
	l-0.3,0.01l0.47-0.01L395.14,767.84L395.14,767.84z M372.69,767.84l0.47,0.01l-0.3-0.01L372.69,767.84L372.69,767.84z M371.61,767.8
	l0.34,0.01l-0.32-0.01l-0.29-0.01L371.61,767.8z M396.37,767.8l-0.32,0.01l0.34-0.01l0.27-0.01L396.37,767.8z M397.6,767.76
	l-0.17,0.01l0.52-0.02L397.6,767.76z M370.05,767.75l0.52,0.02l-0.17-0.01L370.05,767.75z M368.92,767.71l0.54,0.02l-0.3-0.01
	L368.92,767.71z M398.83,767.72l-0.3,0.01l0.54-0.02L398.83,767.72z M367.82,767.66l0.53,0.02l-0.42-0.02L367.82,767.66
	L367.82,767.66z M400.06,767.67l-0.42,0.02l0.53-0.02L400.06,767.67L400.06,767.67z M366.28,767.6l0.57,0.03l-0.14,0L366.28,767.6z
	 M401.29,767.62l-0.14,0l0.57-0.03L401.29,767.62L401.29,767.62z M365.17,767.55l0.59,0.03l-0.28-0.01L365.17,767.55z
	 M402.52,767.56l-0.28,0.01l0.59-0.03L402.52,767.56z M364.08,767.49l0.6,0.03l-0.42-0.02L364.08,767.49z M403.75,767.5l-0.42,0.02
	l0.6-0.03L403.75,767.5z M404.97,767.44l-0.54,0.03l0.48-0.03l0.57-0.03L404.97,767.44L404.97,767.44z M363.09,767.44l0.48,0.03
	l-0.54-0.03l-0.51-0.03L363.09,767.44L363.09,767.44z M406.2,767.37l-0.24,0.01l0.61-0.03L406.2,767.37z M361.43,767.35l0.61,0.03
	l-0.24-0.01L361.43,767.35z M360.35,767.28l0.61,0.04l-0.38-0.02L360.35,767.28L360.35,767.28z M407.42,767.3l-0.38,0.02l0.61-0.04
	L407.42,767.3L407.42,767.3z M359.32,767.22l0.55,0.03l-0.51-0.03l-0.51-0.03L359.32,767.22L359.32,767.22z M408.65,767.22
	l-0.51,0.03l0.55-0.03l0.48-0.03L408.65,767.22L408.65,767.22z M409.87,767.14l-0.18,0.01l0.58-0.04L409.87,767.14L409.87,767.14z
	 M357.73,767.11l0.58,0.04l-0.18-0.01L357.73,767.11z M356.65,767.04l0.57,0.04l-0.31-0.02L356.65,767.04L356.65,767.04z
	 M411.09,767.06l-0.31,0.02l0.57-0.04L411.09,767.06z M355.57,766.96l0.52,0.04l-0.41-0.03L355.57,766.96L355.57,766.96z
	 M412.31,766.97L411.9,767l0.52-0.04L412.31,766.97L412.31,766.97z M354.12,766.85l0.46,0.03l-0.11-0.01L354.12,766.85z
	 M413.53,766.88l-0.11,0.01l0.46-0.03L413.53,766.88z M414.74,766.79l-0.22,0.02l0.47-0.04L414.74,766.79z M353.01,766.76l0.47,0.04
	l-0.22-0.02L353.01,766.76L353.01,766.76z M351.92,766.68l0.4,0.03l-0.28-0.02L351.92,766.68z M415.96,766.69l-0.28,0.02l0.4-0.03
	L415.96,766.69z M350.72,766.57l0.12,0.01l-0.02,0L350.72,766.57L350.72,766.57z M417.18,766.58l-0.02,0l0.12-0.01L417.18,766.58
	L417.18,766.58z M418.39,766.48l-0.11,0.01l0.27-0.02L418.39,766.48L418.39,766.48z M349.44,766.46l0.27,0.02l-0.11-0.01
	L349.44,766.46L349.44,766.46z M348.32,766.36l0.2,0.02l-0.13-0.01L348.32,766.36z M419.6,766.37l-0.13,0.01l0.2-0.02L419.6,766.37z
	 M324,763.33C140.52,734.49,0,575.53,0,384C0,172.07,172.07,0,384,0s384,172.07,384,384c0,191.53-140.52,350.49-324,379.33V495
	h89.47l17.03-111H444v-72.03c0-30.37,14.88-59.97,62.58-59.97H555v-94.5c0,0-43.94-7.5-85.96-7.5C381.33,150,324,203.16,324,299.4
	V384h-97.5v111H324V763.33z"/>
</svg>
