<?xml version="1.0" encoding="utf-8"?>
<!-- Generator: Adobe Illustrator 23.1.0, SVG Export Plug-In . SVG Version: 6.00 Build 0)  -->
<svg version="1.1" id="Ebene_1" xmlns:serif="http://www.serif.com/"
	 xmlns="http://www.w3.org/2000/svg" xmlns:xlink="http://www.w3.org/1999/xlink" x="0px" y="0px" viewBox="0 0 768 768"
	 style="enable-background:new 0 0 768 768;" xml:space="preserve">
<path class="st0" d="M384,0c211.93,0,384,172.07,384,384S595.93,768,384,768S0,595.93,0,384S172.07,0,384,0z M384,144
	c-65.18,0-73.35,0.28-98.95,1.44c-25.55,1.17-42.99,5.22-58.26,11.16c-15.78,6.13-29.17,14.34-42.51,27.68
	c-13.34,13.34-21.55,26.73-27.68,42.51c-5.93,15.27-9.99,32.71-11.16,58.26c-1.17,25.6-1.44,33.77-1.44,98.95s0.28,73.35,1.44,98.95
	c1.17,25.54,5.22,42.99,11.16,58.26c6.13,15.78,14.34,29.17,27.68,42.51c13.34,13.34,26.73,21.55,42.51,27.68
	c15.27,5.93,32.71,9.99,58.26,11.15c25.6,1.17,33.77,1.44,98.95,1.44s73.35-0.28,98.95-1.44c25.54-1.17,42.99-5.22,58.26-11.15
	c15.78-6.13,29.17-14.34,42.51-27.68c13.34-13.34,21.55-26.73,27.68-42.51c5.93-15.27,9.99-32.71,11.15-58.26
	c1.17-25.6,1.44-33.77,1.44-98.95s-0.28-73.35-1.44-98.95c-1.17-25.55-5.22-42.99-11.15-58.26c-6.13-15.78-14.34-29.17-27.68-42.51
	c-13.34-13.34-26.73-21.55-42.51-27.68c-15.27-5.93-32.71-9.99-58.26-11.16C457.35,144.28,449.18,144,384,144z M384,187.24
	c64.08,0,71.67,0.24,96.98,1.4c23.4,1.07,36.11,4.98,44.56,8.26c11.2,4.35,19.2,9.55,27.6,17.95c8.4,8.4,13.6,16.39,17.95,27.6
	c3.29,8.46,7.2,21.16,8.26,44.56c1.16,25.31,1.4,32.9,1.4,96.98s-0.24,71.67-1.4,96.98c-1.07,23.4-4.98,36.11-8.26,44.56
	c-4.35,11.2-9.55,19.2-17.95,27.6c-8.4,8.4-16.39,13.6-27.6,17.95c-8.46,3.29-21.16,7.2-44.56,8.26c-25.3,1.16-32.89,1.4-96.98,1.4
	s-71.68-0.24-96.98-1.4c-23.4-1.07-36.11-4.98-44.56-8.26c-11.2-4.35-19.2-9.55-27.6-17.95c-8.4-8.4-13.6-16.39-17.95-27.6
	c-3.29-8.46-7.2-21.16-8.27-44.56c-1.15-25.31-1.4-32.9-1.4-96.98s0.24-71.67,1.4-96.98c1.07-23.4,4.98-36.11,8.27-44.56
	c4.35-11.2,9.55-19.2,17.95-27.6c8.4-8.4,16.39-13.6,27.6-17.95c8.46-3.29,21.16-7.2,44.56-8.26
	C312.33,187.49,319.92,187.24,384,187.24L384,187.24z M384,260.76c-68.07,0-123.24,55.18-123.24,123.24S315.93,507.24,384,507.24
	S507.24,452.07,507.24,384S452.07,260.76,384,260.76L384,260.76z M384,464c-44.18,0-80-35.82-80-80s35.82-80,80-80s80,35.82,80,80
	S428.18,464,384,464z M540.91,255.89c0,15.91-12.9,28.8-28.8,28.8c-15.9,0-28.8-12.89-28.8-28.8s12.89-28.8,28.8-28.8
	C528.02,227.09,540.91,239.98,540.91,255.89z"/>
</svg>
