<svg width="608.69" height="92.758" version="1.1" viewBox="0 0 161.05 24.542" xmlns="http://www.w3.org/2000/svg">
 <g transform="translate(0 -138.25)" fill="#000">
  <path d="m14.089 146.65-0.69991 3.9737h-6.2766l-0.38382 2.2126h4.5156l-0.65476 3.7705h-4.5156l-1.0612 6.0283h-5.0123l2.7996-15.985z"/>
  <path d="m15.674 146.83q0-0.79022 0.42898-1.445 0.45156-0.67733 1.2192-1.0612 0.79022-0.4064 1.7385-0.4064 1.1515 0 1.8062 0.58703 0.65476 0.56444 0.65476 1.4676 0 0.79022-0.42898 1.4676-0.42898 0.65475-1.1966 1.0612-0.76764 0.38383-1.7159 0.38383-1.174 0-1.8514-0.56445-0.65476-0.58702-0.65476-1.4901zm4.8091 3.0706-2.2352 12.734h-5.0123l2.2352-12.734z"/>
  <path d="m26.902 157.51q-0.02258 0.0903-0.02258 0.22577 0 0.63218 0.8128 0.63218h1.1966l-0.76764 4.2672h-1.8965q-4.4478 0-4.4478-3.7705 0-0.67733 0.13547-1.445l0.58702-3.3415h-1.5804l0.74507-4.1769h1.5804l0.54187-3.0706h5.0123l-0.54187 3.0706h2.0772l-0.74507 4.1769h-2.0772z"/>
  <path d="m41.477 149.81c1.2343 0 2.1825 0.36125 2.8448 1.0837 0.66228 0.70743 0.99342 1.6933 0.99342 2.9577 0 0.4365-0.04516 0.90311-0.13547 1.3998l-1.3095 7.3829h-4.9897l1.1966-6.7508c0.03011-0.21073 0.04516-0.36877 0.04516-0.47414 0-0.46661-0.13547-0.82785-0.4064-1.0837-0.25588-0.27093-0.61713-0.4064-1.0837-0.4064-0.55692 0-1.0235 0.18062-1.3998 0.54187-0.3763 0.34619-0.61713 0.82033-0.72249 1.4224v-0.11289l-1.1966 6.8636h-5.0123l1.5686-8.9364 0.66657-3.7974h5.0123l-0.33867 1.9417c0.51176-0.60207 1.1214-1.0913 1.8288-1.4676 0.72249-0.3763 1.5353-0.56445 2.4384-0.56445z"/>
  <path d="m54.127 149.74q2.5287 0 4.0188 1.3547 1.4901 1.3321 1.4901 3.6576 0 0.65475-0.13547 1.3998-0.13547 0.6096-0.29351 0.99342h-7.9925q-0.02258 0.15805-0.02258 0.45156 0 0.67733 0.27093 0.94826 0.29351 0.24836 0.8128 0.24836 0.83538 0 1.3095-0.74507h5.3058q-0.79022 2.0997-2.6868 3.4318-1.874 1.3095-4.3801 1.3095t-3.9737-1.3772q-1.4676-1.3998-1.4676-3.8608 0-0.72249 0.13547-1.5353 0.33867-1.9191 1.4224-3.3415 1.0837-1.4224 2.6868-2.1675 1.603-0.76765 3.4996-0.76765zm0.47413 5.3509q0.02258-0.11288 0.02258-0.33866 0-0.54187-0.33867-0.8128-0.33867-0.27094-0.85796-0.27094-1.3547 0-1.8288 1.4224z"/>
  <path d="m66.707 149.74q2.8448 0 4.3349 1.2644 1.5127 1.2418 1.7385 3.2964h-4.8994q-0.11289-1.0837-1.603-1.0837-0.45156 0-0.72249 0.11289-0.24836 0.11289-0.24836 0.4064 0 0.31609 0.47413 0.51929 0.49671 0.18062 1.5353 0.42897 1.4676 0.36125 2.4384 0.74507 0.97084 0.36125 1.6933 1.1289 0.74507 0.76764 0.74507 2.0094 0 0.45156-0.09031 0.83538-0.29351 1.5127-1.8062 2.461-1.4901 0.92569-4.064 0.92569-2.6868 0-4.3349-1.174-1.6482-1.1966-1.8062-3.3867h4.8994q-0.04516 0.6096 0.42898 0.85795 0.47413 0.24836 1.2192 0.24836 0.85796 0 0.97084-0.49671 0.06773-0.36125-0.4064-0.56445-0.45156-0.2032-1.5804-0.45155-1.4224-0.31609-2.3932-0.67734-0.94827-0.36124-1.6708-1.1063-0.72249-0.76764-0.72249-2.0094 0-0.27093 0.09031-0.85796 0.24836-1.4901 1.7385-2.461 1.4901-0.97085 4.0414-0.97085z"/>
  <path d="m79.76 149.74q2.8448 0 4.3349 1.2644 1.5127 1.2418 1.7385 3.2964h-4.8994q-0.11289-1.0837-1.603-1.0837-0.45156 0-0.72249 0.11289-0.24836 0.11289-0.24836 0.4064 0 0.31609 0.47413 0.51929 0.49671 0.18062 1.5353 0.42897 1.4676 0.36125 2.4384 0.74507 0.97084 0.36125 1.6933 1.1289 0.74507 0.76764 0.74507 2.0094 0 0.45156-0.09031 0.83538-0.29351 1.5127-1.8062 2.461-1.4901 0.92569-4.064 0.92569-2.6868 0-4.3349-1.174-1.6482-1.1966-1.8062-3.3867h4.8994q-0.04516 0.6096 0.42898 0.85795 0.47413 0.24836 1.2192 0.24836 0.85796 0 0.97084-0.49671 0.06773-0.36125-0.4064-0.56445-0.45156-0.2032-1.5804-0.45155-1.4224-0.31609-2.3932-0.67734-0.94827-0.36124-1.6708-1.1063-0.72249-0.76764-0.72249-2.0094 0-0.27093 0.09031-0.85796 0.24836-1.4901 1.7385-2.461 1.4901-0.97085 4.0414-0.97085z"/>
  <path d="m92.812 149.74q2.8448 0 4.3349 1.2644 1.5127 1.2418 1.7385 3.2964h-4.8994q-0.11289-1.0837-1.603-1.0837-0.45156 0-0.72249 0.11289-0.24836 0.11289-0.24836 0.4064 0 0.31609 0.47413 0.51929 0.49671 0.18062 1.5353 0.42897 1.4676 0.36125 2.4384 0.74507 0.97085 0.36125 1.6933 1.1289 0.74506 0.76764 0.74506 2.0094 0 0.45156-0.0903 0.83538-0.29351 1.5127-1.8062 2.461-1.4901 0.92569-4.064 0.92569-2.6868 0-4.3349-1.174-1.6482-1.1966-1.8062-3.3867h4.8994q-0.04515 0.6096 0.42898 0.85795 0.47413 0.24836 1.2192 0.24836 0.85796 0 0.97084-0.49671 0.06773-0.36125-0.4064-0.56445-0.45156-0.2032-1.5804-0.45155-1.4224-0.31609-2.3932-0.67734-0.94827-0.36124-1.6708-1.1063-0.72249-0.76764-0.72249-2.0094 0-0.27093 0.09031-0.85796 0.24836-1.4901 1.7385-2.461 1.4901-0.97085 4.0414-0.97085z"/>
  <path d="m105.57 157.51q-0.0226 0.0903-0.0226 0.22577 0 0.63218 0.8128 0.63218h1.1966l-0.76765 4.2672h-1.8965q-4.4478 0-4.4478-3.7705 0-0.67733 0.13546-1.445l0.58702-3.3415h-1.5804l0.74507-4.1769h1.5804l0.54187-3.0706h5.0123l-0.54186 3.0706h2.0772l-0.74506 4.1769h-2.0772z"/>
  <path d="m124.48 149.9-2.2352 12.734h-5.0123l0.33867-1.9417q-0.76765 0.90311-1.8514 1.4676-1.0612 0.56444-2.4158 0.56444-1.8514 0-2.8448-1.0612-0.99343-1.0837-0.99343-2.9803 0-0.65475 0.13547-1.3998l1.3095-7.3829h4.9897l-1.1966 6.7508q-0.0452 0.31609-0.0452 0.47413 0 0.69992 0.38383 1.1063 0.4064 0.38382 1.1063 0.38382 0.83537 0 1.3998-0.51929 0.56444-0.54187 0.72249-1.445v0.11289l1.1966-6.8636z"/>
  <path d="m140.59 145.93-2.9577 16.708h-5.0123l0.31609-1.7385q-0.63218 0.88054-1.6256 1.3998-0.97085 0.49671-2.2126 0.49671-1.9191 0-3.0932-1.3547-1.174-1.3772-1.174-3.7931 0-0.90311 0.15805-1.8288 0.33867-1.874 1.2418-3.2512 0.92569-1.3772 2.2126-2.0997 1.3095-0.72249 2.7319-0.72249 1.3321 0 2.19 0.51929 0.88054 0.49671 1.1966 1.3772l1.016-5.7122zm-8.286 8.1957q-0.8128 0-1.445 0.56444-0.6096 0.56445-0.79022 1.5804-0.0452 0.2032-0.0452 0.54187 0 0.76764 0.4064 1.1966 0.4064 0.4064 1.1063 0.4064 0.8128 0 1.4224-0.56445 0.63218-0.56444 0.8128-1.5804 0.0452-0.2032 0.0452-0.54187 0-0.76764-0.4064-1.174-0.4064-0.42898-1.1063-0.42898z"/>
  <path d="m142.19 146.83q0-0.79022 0.42898-1.445 0.45155-0.67733 1.2192-1.0612 0.79022-0.4064 1.7385-0.4064 1.1515 0 1.8062 0.58703 0.65475 0.56444 0.65475 1.4676 0 0.79022-0.42898 1.4676-0.42897 0.65475-1.1966 1.0612-0.76764 0.38383-1.7159 0.38383-1.174 0-1.8514-0.56445-0.65475-0.58702-0.65475-1.4901zm4.8091 3.0706-2.2352 12.734h-5.0123l2.2352-12.734z"/>
  <path d="m155.2 149.74q1.7159 0 3.048 0.65476 1.3321 0.65475 2.0546 1.8965 0.74506 1.2418 0.74506 2.9351 0 0.69991-0.13546 1.4901-0.33867 1.8514-1.445 3.2286-1.0837 1.3772-2.7093 2.1223-1.6256 0.72249-3.4996 0.72249-1.7611 0-3.1157-0.65476-1.3321-0.67733-2.0772-1.9191t-0.74507-2.9351q0-0.69991 0.13547-1.4676 0.33867-1.8514 1.445-3.2286 1.1063-1.3772 2.7545-2.0997 1.6482-0.74507 3.5447-0.74507zm-0.63218 4.3349q-0.69991 0-1.2644 0.56445-0.56444 0.54187-0.76764 1.6256-0.0677 0.36124-0.0677 0.65475 0 0.76765 0.36124 1.1515 0.36125 0.38382 0.97085 0.38382 0.69991 0 1.2644-0.54186 0.56445-0.56445 0.76765-1.6482 0.0677-0.33867 0.0677-0.65476 0-0.76764-0.38382-1.1515-0.36125-0.38383-0.94827-0.38383z"/>
  <path d="m48.2 142.9-0.8201 4.651h36.736l0.8206-4.651z"/>
  <path d="m33.77 142.9-0.8201 4.651h5.0123l0.82061-4.651z"/>
  <path d="m41.805 138.25-0.8201 4.6509h5.18e-4l-0.8201 4.6514h5.0121l0.82062-4.6514h-5.16e-4l0.82062-4.6509z"/>
  <path d="m94.353 142.9-0.8201 4.651h5.0123l0.82061-4.651z"/>
  <path d="m87.958 138.25-0.8201 4.6509h5.18e-4l-0.8201 4.6514h5.0121l0.82062-4.6514h-5.16e-4l0.82062-4.6509z"/>
 </g>
</svg>
